<?xml version="1.0" encoding="utf-8"?>
<!-- Generator: Adobe Illustrator 18.0.0, SVG Export Plug-In . SVG Version: 6.00 Build 0)  -->
<!DOCTYPE svg PUBLIC "-//W3C//DTD SVG 1.1//EN" "http://www.w3.org/Graphics/SVG/1.1/DTD/svg11.dtd">
<svg version="1.1" xmlns="http://www.w3.org/2000/svg" xmlns:xlink="http://www.w3.org/1999/xlink" x="0px" y="0px"
	 viewBox="0 0 47.9 47.9" enable-background="new 0 0 47.9 47.9" xml:space="preserve">
<g id="search">
	<path fill="#62717D" d="M46.6,40.2L36.1,29.7c1.8-3,2.9-6.4,2.9-10.2C39,8.7,30.3,0,19.5,0S0,8.7,0,19.5S8.7,39,19.5,39
		c3.8,0,7.2-1.1,10.2-2.9l10.5,10.5c1.8,1.8,4.6,1.8,6.4,0S48.4,42,46.6,40.2z M19.5,33C12,33,6,27,6,19.5S12,6,19.5,6
		S33,12,33,19.5S27,33,19.5,33z"/>
</g>
</svg>
